<?xml version="1.0" encoding="utf-8"?>
<svg viewBox="-2.471 -9.159 303.9766 96.571" xmlns="http://www.w3.org/2000/svg">
  <defs/>
  <path d="M 0.83 59.69 Q 0.23 58.72 0.27 57.63 Q 0.3 56.54 1.5 55.72 Q 2.33 55.19 3.34 55.27 Q 4.35 55.34 5.18 56.24 Q 7.28 58.72 9.98 60.18 Q 12.68 61.64 16.58 61.64 Q 18.3 61.57 20.14 61.04 Q 21.98 60.52 23.22 59.2 Q 24.45 57.89 24.45 55.72 Q 24.45 53.62 23.18 52.38 Q 21.9 51.14 19.84 50.35 Q 17.78 49.57 15.45 48.97 Q 12.98 48.29 10.58 47.47 Q 8.18 46.64 6.27 45.33 Q 4.35 44.02 3.19 42.03 Q 2.03 40.04 2.03 37.12 Q 2.03 33.74 3.87 31.27 Q 5.7 28.79 8.78 27.44 Q 11.85 26.09 15.6 26.09 Q 17.7 26.09 19.99 26.58 Q 22.28 27.07 24.45 28.23 Q 26.63 29.39 28.28 31.42 Q 28.95 32.17 29.03 33.29 Q 29.1 34.42 28.05 35.32 Q 27.23 35.92 26.22 35.88 Q 25.2 35.84 24.53 35.17 Q 22.88 33.22 20.52 32.2 Q 18.15 31.19 15.3 31.19 Q 13.58 31.19 11.85 31.75 Q 10.13 32.32 8.97 33.52 Q 7.8 34.72 7.8 36.89 Q 7.88 38.92 9.15 40.19 Q 10.43 41.47 12.6 42.25 Q 14.78 43.04 17.4 43.79 Q 19.8 44.39 22.02 45.18 Q 24.23 45.97 26.03 47.24 Q 27.83 48.52 28.88 50.5 Q 29.93 52.49 29.93 55.49 Q 29.93 58.94 27.98 61.45 Q 26.03 63.97 22.84 65.28 Q 19.65 66.59 15.98 66.59 Q 11.85 66.59 7.8 65.05 Q 3.75 63.52 0.83 59.69 Z M 54.8 66.59 Q 48.73 66.59 44.23 64.04 Q 39.73 61.49 37.25 57.03 Q 34.78 52.57 34.78 46.72 Q 34.78 40.19 37.37 35.58 Q 39.95 30.97 44.12 28.53 Q 48.28 26.09 52.93 26.09 Q 56.38 26.09 59.6 27.37 Q 62.83 28.64 65.3 31.12 Q 67.78 33.59 69.28 36.97 Q 70.78 40.34 70.85 44.62 Q 70.85 45.82 69.95 46.6 Q 69.05 47.39 67.85 47.39 L 38.23 47.39 L 36.88 42.22 L 65.68 42.22 L 64.48 43.27 L 64.48 41.62 Q 64.25 38.54 62.49 36.33 Q 60.73 34.12 58.22 32.92 Q 55.7 31.72 52.93 31.72 Q 50.68 31.72 48.47 32.54 Q 46.25 33.37 44.49 35.09 Q 42.73 36.82 41.64 39.59 Q 40.55 42.37 40.55 46.27 Q 40.55 50.62 42.32 53.92 Q 44.08 57.22 47.23 59.13 Q 50.38 61.04 54.58 61.04 Q 57.2 61.04 59.15 60.37 Q 61.1 59.69 62.49 58.68 Q 63.88 57.67 64.85 56.62 Q 65.83 55.94 66.8 55.94 Q 67.85 55.94 68.6 56.69 Q 69.35 57.44 69.35 58.49 Q 69.35 59.77 68.15 60.82 Q 65.98 63.14 62.42 64.87 Q 58.85 66.59 54.8 66.59 Z M 99.61 26.09 Q 104.71 26.09 107.64 28.19 Q 110.56 30.29 111.8 33.82 Q 113.04 37.34 113.04 41.77 L 113.04 62.77 Q 113.04 64.04 112.17 64.94 Q 111.31 65.84 110.04 65.84 Q 108.69 65.84 107.86 64.94 Q 107.04 64.04 107.04 62.77 L 107.04 41.92 Q 107.04 39.07 106.17 36.74 Q 105.31 34.42 103.29 33.03 Q 101.26 31.64 97.89 31.64 Q 94.74 31.64 92.11 33.03 Q 89.49 34.42 87.91 36.74 Q 86.34 39.07 86.34 41.92 L 86.34 62.77 Q 86.34 64.04 85.47 64.94 Q 84.61 65.84 83.34 65.84 Q 82.06 65.84 81.2 64.94 Q 80.34 64.04 80.34 62.77 L 80.34 30.14 Q 80.34 28.79 81.2 27.93 Q 82.06 27.07 83.34 27.07 Q 84.69 27.07 85.51 27.93 Q 86.34 28.79 86.34 30.14 L 86.34 35.39 L 84.84 37.04 Q 85.21 35.09 86.56 33.1 Q 87.91 31.12 89.94 29.54 Q 91.96 27.97 94.44 27.03 Q 96.91 26.09 99.61 26.09 Z M 121.54 59.69 Q 120.94 58.72 120.98 57.63 Q 121.02 56.54 122.22 55.72 Q 123.04 55.19 124.06 55.27 Q 125.07 55.34 125.89 56.24 Q 127.99 58.72 130.69 60.18 Q 133.39 61.64 137.29 61.64 Q 139.02 61.57 140.86 61.04 Q 142.69 60.52 143.93 59.2 Q 145.17 57.89 145.17 55.72 Q 145.17 53.62 143.89 52.38 Q 142.62 51.14 140.56 50.35 Q 138.49 49.57 136.17 48.97 Q 133.69 48.29 131.29 47.47 Q 128.89 46.64 126.98 45.33 Q 125.07 44.02 123.91 42.03 Q 122.74 40.04 122.74 37.12 Q 122.74 33.74 124.58 31.27 Q 126.42 28.79 129.49 27.44 Q 132.57 26.09 136.32 26.09 Q 138.42 26.09 140.71 26.58 Q 142.99 27.07 145.17 28.23 Q 147.34 29.39 148.99 31.42 Q 149.67 32.17 149.74 33.29 Q 149.82 34.42 148.77 35.32 Q 147.94 35.92 146.93 35.88 Q 145.92 35.84 145.24 35.17 Q 143.59 33.22 141.23 32.2 Q 138.87 31.19 136.02 31.19 Q 134.29 31.19 132.57 31.75 Q 130.84 32.32 129.68 33.52 Q 128.52 34.72 128.52 36.89 Q 128.59 38.92 129.87 40.19 Q 131.14 41.47 133.32 42.25 Q 135.49 43.04 138.12 43.79 Q 140.52 44.39 142.73 45.18 Q 144.94 45.97 146.74 47.24 Q 148.54 48.52 149.59 50.5 Q 150.64 52.49 150.64 55.49 Q 150.64 58.94 148.69 61.45 Q 146.74 63.97 143.56 65.28 Q 140.37 66.59 136.69 66.59 Q 132.57 66.59 128.52 65.05 Q 124.47 63.52 121.54 59.69 Z M 175.52 66.59 Q 169.44 66.59 164.94 64.04 Q 160.44 61.49 157.97 57.03 Q 155.49 52.57 155.49 46.72 Q 155.49 40.19 158.08 35.58 Q 160.67 30.97 164.83 28.53 Q 168.99 26.09 173.64 26.09 Q 177.09 26.09 180.32 27.37 Q 183.54 28.64 186.02 31.12 Q 188.49 33.59 189.99 36.97 Q 191.49 40.34 191.57 44.62 Q 191.57 45.82 190.67 46.6 Q 189.77 47.39 188.57 47.39 L 158.94 47.39 L 157.59 42.22 L 186.39 42.22 L 185.19 43.27 L 185.19 41.62 Q 184.97 38.54 183.21 36.33 Q 181.44 34.12 178.93 32.92 Q 176.42 31.72 173.64 31.72 Q 171.39 31.72 169.18 32.54 Q 166.97 33.37 165.21 35.09 Q 163.44 36.82 162.36 39.59 Q 161.27 42.37 161.27 46.27 Q 161.27 50.62 163.03 53.92 Q 164.79 57.22 167.94 59.13 Q 171.09 61.04 175.29 61.04 Q 177.92 61.04 179.87 60.37 Q 181.82 59.69 183.21 58.68 Q 184.59 57.67 185.57 56.62 Q 186.54 55.94 187.52 55.94 Q 188.57 55.94 189.32 56.69 Q 190.07 57.44 190.07 58.49 Q 190.07 59.77 188.87 60.82 Q 186.69 63.14 183.13 64.87 Q 179.57 66.59 175.52 66.59 Z" style="fill: rgb(51, 51, 51);"/>
  <path d="M 240.73 10.49 Q 242 10.49 243.39 10.83 Q 244.78 11.17 245.79 11.88 Q 246.8 12.59 246.8 13.87 Q 246.8 15.07 246.05 15.85 Q 245.3 16.64 244.25 16.64 Q 243.58 16.64 242.38 16.27 Q 241.18 15.89 239.9 15.89 Q 238.18 15.89 237.09 16.64 Q 236 17.39 235.51 18.63 Q 235.03 19.87 235.03 21.37 L 235.03 62.77 Q 235.03 64.04 234.16 64.94 Q 233.3 65.84 232.03 65.84 Q 230.68 65.84 229.85 64.94 Q 229.03 64.04 229.03 62.77 L 229.03 21.37 Q 229.03 16.42 232.14 13.45 Q 235.25 10.49 240.73 10.49 Z M 242.83 27.67 Q 244.03 27.67 244.85 28.45 Q 245.68 29.24 245.68 30.44 Q 245.68 31.64 244.85 32.43 Q 244.03 33.22 242.83 33.22 L 224 33.22 Q 222.8 33.22 221.98 32.43 Q 221.15 31.64 221.15 30.44 Q 221.15 29.17 221.98 28.42 Q 222.8 27.67 224 27.67 Z M 250.71 26.62 Q 252.13 26.62 253.11 27.89 L 279.21 61.19 Q 279.81 62.02 279.81 62.99 Q 279.81 64.27 278.91 65.17 Q 278.01 66.07 276.81 66.07 Q 275.38 66.07 274.33 64.72 L 248.23 31.49 Q 247.56 30.74 247.56 29.69 Q 247.56 28.34 248.49 27.48 Q 249.43 26.62 250.71 26.62 Z M 250.71 65.99 Q 249.73 65.99 248.76 65.24 Q 247.78 64.49 247.78 63.29 Q 247.78 62.32 248.46 61.42 L 260.76 45.89 L 263.98 50.84 L 253.11 64.79 Q 252.21 65.99 250.71 65.99 Z M 276.73 26.62 Q 278.08 26.62 278.87 27.44 Q 279.66 28.27 279.66 29.32 Q 279.66 29.84 279.47 30.33 Q 279.28 30.82 278.91 31.27 L 266.68 46.94 L 263.53 42.37 L 274.33 27.97 Q 275.38 26.62 276.73 26.62 Z" style="fill: rgb(51, 51, 51);"/>
  <path d="M 0.83 59.69 Q 0.23 58.72 0.27 57.63 Q 0.3 56.54 1.5 55.72 Q 2.33 55.19 3.34 55.27 Q 4.35 55.34 5.18 56.24 Q 7.28 58.72 9.98 60.18 Q 12.68 61.64 16.58 61.64 Q 18.3 61.57 20.14 61.04 Q 21.98 60.52 23.22 59.2 Q 24.45 57.89 24.45 55.72 Q 24.45 53.62 23.18 52.38 Q 21.9 51.14 19.84 50.35 Q 17.78 49.57 15.45 48.97 Q 12.98 48.29 10.58 47.47 Q 8.18 46.64 6.27 45.33 Q 4.35 44.02 3.19 42.03 Q 2.03 40.04 2.03 37.12 Q 2.03 33.74 3.87 31.27 Q 5.7 28.79 8.78 27.44 Q 11.85 26.09 15.6 26.09 Q 17.7 26.09 19.99 26.58 Q 22.28 27.07 24.45 28.23 Q 26.63 29.39 28.28 31.42 Q 28.95 32.17 29.03 33.29 Q 29.1 34.42 28.05 35.32 Q 27.23 35.92 26.22 35.88 Q 25.2 35.84 24.53 35.17 Q 22.88 33.22 20.52 32.2 Q 18.15 31.19 15.3 31.19 Q 13.58 31.19 11.85 31.75 Q 10.13 32.32 8.97 33.52 Q 7.8 34.72 7.8 36.89 Q 7.88 38.92 9.15 40.19 Q 10.43 41.47 12.6 42.25 Q 14.78 43.04 17.4 43.79 Q 19.8 44.39 22.02 45.18 Q 24.23 45.97 26.03 47.24 Q 27.83 48.52 28.88 50.5 Q 29.93 52.49 29.93 55.49 Q 29.93 58.94 27.98 61.45 Q 26.03 63.97 22.84 65.28 Q 19.65 66.59 15.98 66.59 Q 11.85 66.59 7.8 65.05 Q 3.75 63.52 0.83 59.69 Z M 54.8 66.59 Q 48.73 66.59 44.23 64.04 Q 39.73 61.49 37.25 57.03 Q 34.78 52.57 34.78 46.72 Q 34.78 40.19 37.37 35.58 Q 39.95 30.97 44.12 28.53 Q 48.28 26.09 52.93 26.09 Q 56.38 26.09 59.6 27.37 Q 62.83 28.64 65.3 31.12 Q 67.78 33.59 69.28 36.97 Q 70.78 40.34 70.85 44.62 Q 70.85 45.82 69.95 46.6 Q 69.05 47.39 67.85 47.39 L 38.23 47.39 L 36.88 42.22 L 65.68 42.22 L 64.48 43.27 L 64.48 41.62 Q 64.25 38.54 62.49 36.33 Q 60.73 34.12 58.22 32.92 Q 55.7 31.72 52.93 31.72 Q 50.68 31.72 48.47 32.54 Q 46.25 33.37 44.49 35.09 Q 42.73 36.82 41.64 39.59 Q 40.55 42.37 40.55 46.27 Q 40.55 50.62 42.32 53.92 Q 44.08 57.22 47.23 59.13 Q 50.38 61.04 54.58 61.04 Q 57.2 61.04 59.15 60.37 Q 61.1 59.69 62.49 58.68 Q 63.88 57.67 64.85 56.62 Q 65.83 55.94 66.8 55.94 Q 67.85 55.94 68.6 56.69 Q 69.35 57.44 69.35 58.49 Q 69.35 59.77 68.15 60.82 Q 65.98 63.14 62.42 64.87 Q 58.85 66.59 54.8 66.59 Z M 99.61 26.09 Q 104.71 26.09 107.64 28.19 Q 110.56 30.29 111.8 33.82 Q 113.04 37.34 113.04 41.77 L 113.04 62.77 Q 113.04 64.04 112.17 64.94 Q 111.31 65.84 110.04 65.84 Q 108.69 65.84 107.86 64.94 Q 107.04 64.04 107.04 62.77 L 107.04 41.92 Q 107.04 39.07 106.17 36.74 Q 105.31 34.42 103.29 33.03 Q 101.26 31.64 97.89 31.64 Q 94.74 31.64 92.11 33.03 Q 89.49 34.42 87.91 36.74 Q 86.34 39.07 86.34 41.92 L 86.34 62.77 Q 86.34 64.04 85.47 64.94 Q 84.61 65.84 83.34 65.84 Q 82.06 65.84 81.2 64.94 Q 80.34 64.04 80.34 62.77 L 80.34 30.14 Q 80.34 28.79 81.2 27.93 Q 82.06 27.07 83.34 27.07 Q 84.69 27.07 85.51 27.93 Q 86.34 28.79 86.34 30.14 L 86.34 35.39 L 84.84 37.04 Q 85.21 35.09 86.56 33.1 Q 87.91 31.12 89.94 29.54 Q 91.96 27.97 94.44 27.03 Q 96.91 26.09 99.61 26.09 Z M 121.54 59.69 Q 120.94 58.72 120.98 57.63 Q 121.02 56.54 122.22 55.72 Q 123.04 55.19 124.06 55.27 Q 125.07 55.34 125.89 56.24 Q 127.99 58.72 130.69 60.18 Q 133.39 61.64 137.29 61.64 Q 139.02 61.57 140.86 61.04 Q 142.69 60.52 143.93 59.2 Q 145.17 57.89 145.17 55.72 Q 145.17 53.62 143.89 52.38 Q 142.62 51.14 140.56 50.35 Q 138.49 49.57 136.17 48.97 Q 133.69 48.29 131.29 47.47 Q 128.89 46.64 126.98 45.33 Q 125.07 44.02 123.91 42.03 Q 122.74 40.04 122.74 37.12 Q 122.74 33.74 124.58 31.27 Q 126.42 28.79 129.49 27.44 Q 132.57 26.09 136.32 26.09 Q 138.42 26.09 140.71 26.58 Q 142.99 27.07 145.17 28.23 Q 147.34 29.39 148.99 31.42 Q 149.67 32.17 149.74 33.29 Q 149.82 34.42 148.77 35.32 Q 147.94 35.92 146.93 35.88 Q 145.92 35.84 145.24 35.17 Q 143.59 33.22 141.23 32.2 Q 138.87 31.19 136.02 31.19 Q 134.29 31.19 132.57 31.75 Q 130.84 32.32 129.68 33.52 Q 128.52 34.72 128.52 36.89 Q 128.59 38.92 129.87 40.19 Q 131.14 41.47 133.32 42.25 Q 135.49 43.04 138.12 43.79 Q 140.52 44.39 142.73 45.18 Q 144.94 45.97 146.74 47.24 Q 148.54 48.52 149.59 50.5 Q 150.64 52.49 150.64 55.49 Q 150.64 58.94 148.69 61.45 Q 146.74 63.97 143.56 65.28 Q 140.37 66.59 136.69 66.59 Q 132.57 66.59 128.52 65.05 Q 124.47 63.52 121.54 59.69 Z M 175.52 66.59 Q 169.44 66.59 164.94 64.04 Q 160.44 61.49 157.97 57.03 Q 155.49 52.57 155.49 46.72 Q 155.49 40.19 158.08 35.58 Q 160.67 30.97 164.83 28.53 Q 168.99 26.09 173.64 26.09 Q 177.09 26.09 180.32 27.37 Q 183.54 28.64 186.02 31.12 Q 188.49 33.59 189.99 36.97 Q 191.49 40.34 191.57 44.62 Q 191.57 45.82 190.67 46.6 Q 189.77 47.39 188.57 47.39 L 158.94 47.39 L 157.59 42.22 L 186.39 42.22 L 185.19 43.27 L 185.19 41.62 Q 184.97 38.54 183.21 36.33 Q 181.44 34.12 178.93 32.92 Q 176.42 31.72 173.64 31.72 Q 171.39 31.72 169.18 32.54 Q 166.97 33.37 165.21 35.09 Q 163.44 36.82 162.36 39.59 Q 161.27 42.37 161.27 46.27 Q 161.27 50.62 163.03 53.92 Q 164.79 57.22 167.94 59.13 Q 171.09 61.04 175.29 61.04 Q 177.92 61.04 179.87 60.37 Q 181.82 59.69 183.21 58.68 Q 184.59 57.67 185.57 56.62 Q 186.54 55.94 187.52 55.94 Q 188.57 55.94 189.32 56.69 Q 190.07 57.44 190.07 58.49 Q 190.07 59.77 188.87 60.82 Q 186.69 63.14 183.13 64.87 Q 179.57 66.59 175.52 66.59 Z" style="fill: rgb(51, 51, 51);"/>
  <rect x="209.532" y="1.927" width="84.834" height="78.621" style="fill: rgb(216, 216, 216); stroke: rgb(0, 0, 0); stroke-width: 3; fill-opacity: 0;"/>
</svg>