<svg xmlns="http://www.w3.org/2000/svg" xmlns:xlink="http://www.w3.org/1999/xlink" width="500" zoomAndPan="magnify" viewBox="0 0 375 374.999991" height="500" preserveAspectRatio="xMidYMid meet" version="1.0"><defs><g/><clipPath id="04bf32877c"><path d="M 228.449219 102.230469 L 283.179688 102.230469 L 283.179688 153.640625 L 228.449219 153.640625 Z M 228.449219 102.230469 " clip-rule="nonzero"/></clipPath><clipPath id="7eada5a65e"><path d="M 228.449219 102.234375 L 283.148438 102.234375 L 283.148438 153.09375 L 228.449219 153.09375 Z M 228.449219 102.234375 " clip-rule="nonzero"/></clipPath></defs><g clip-path="url(#04bf32877c)"><path fill="#ffffff" d="M 228.449219 102.230469 L 283.273438 102.230469 L 283.273438 153.640625 L 228.449219 153.640625 Z M 228.449219 102.230469 " fill-opacity="1" fill-rule="nonzero"/></g><g clip-path="url(#7eada5a65e)"><path stroke-linecap="butt" transform="matrix(2.211423, 0, 0, 2.211423, 228.449872, 102.234675)" fill="none" stroke-linejoin="miter" d="M -0.000295352 -0.000135608 L 24.734551 -0.000135608 L 24.734551 23.231508 L -0.000295352 23.231508 Z M -0.000295352 -0.000135608 " stroke="#000000" stroke-width="2.034888" stroke-opacity="1" stroke-miterlimit="4"/></g><g fill="#000000" fill-opacity="1"><g transform="translate(100.411239, 140.666516)"><g><path d="M 2.359375 -3.828125 C 2.109375 -4.203125 1.988281 -4.566406 2 -4.921875 C 2.019531 -5.285156 2.21875 -5.578125 2.59375 -5.796875 C 2.84375 -6.015625 3.132812 -6.109375 3.46875 -6.078125 C 3.800781 -6.046875 4.109375 -5.890625 4.390625 -5.609375 C 5.234375 -4.515625 6.257812 -3.628906 7.46875 -2.953125 C 8.6875 -2.273438 10.128906 -1.9375 11.796875 -1.9375 C 12.671875 -1.9375 13.539062 -2.082031 14.40625 -2.375 C 15.269531 -2.675781 15.984375 -3.132812 16.546875 -3.75 C 17.117188 -4.363281 17.40625 -5.140625 17.40625 -6.078125 C 17.40625 -7.054688 17.117188 -7.84375 16.546875 -8.4375 C 15.984375 -9.039062 15.253906 -9.515625 14.359375 -9.859375 C 13.460938 -10.203125 12.515625 -10.5 11.515625 -10.75 C 10.441406 -11.039062 9.398438 -11.363281 8.390625 -11.71875 C 7.390625 -12.082031 6.503906 -12.539062 5.734375 -13.09375 C 4.960938 -13.644531 4.335938 -14.3125 3.859375 -15.09375 C 3.390625 -15.882812 3.15625 -16.84375 3.15625 -17.96875 C 3.15625 -19.289062 3.515625 -20.453125 4.234375 -21.453125 C 4.960938 -22.460938 5.945312 -23.25 7.1875 -23.8125 C 8.4375 -24.382812 9.847656 -24.671875 11.421875 -24.671875 C 12.203125 -24.671875 13.046875 -24.566406 13.953125 -24.359375 C 14.867188 -24.160156 15.765625 -23.820312 16.640625 -23.34375 C 17.523438 -22.875 18.316406 -22.234375 19.015625 -21.421875 C 19.296875 -21.128906 19.4375 -20.800781 19.4375 -20.4375 C 19.4375 -20.082031 19.28125 -19.765625 18.96875 -19.484375 C 18.707031 -19.296875 18.410156 -19.203125 18.078125 -19.203125 C 17.753906 -19.203125 17.484375 -19.328125 17.265625 -19.578125 C 16.503906 -20.421875 15.601562 -21.0625 14.5625 -21.5 C 13.53125 -21.945312 12.421875 -22.171875 11.234375 -22.171875 C 10.316406 -22.171875 9.457031 -22.019531 8.65625 -21.71875 C 7.851562 -21.425781 7.179688 -20.976562 6.640625 -20.375 C 6.109375 -19.78125 5.84375 -18.992188 5.84375 -18.015625 C 5.90625 -17.109375 6.226562 -16.367188 6.8125 -15.796875 C 7.394531 -15.234375 8.164062 -14.765625 9.125 -14.390625 C 10.082031 -14.015625 11.160156 -13.664062 12.359375 -13.34375 C 13.367188 -13.09375 14.335938 -12.796875 15.265625 -12.453125 C 16.191406 -12.109375 17.007812 -11.675781 17.71875 -11.15625 C 18.425781 -10.632812 18.988281 -9.976562 19.40625 -9.1875 C 19.832031 -8.40625 20.046875 -7.421875 20.046875 -6.234375 C 20.046875 -4.847656 19.660156 -3.648438 18.890625 -2.640625 C 18.117188 -1.628906 17.085938 -0.859375 15.796875 -0.328125 C 14.515625 0.203125 13.085938 0.46875 11.515625 0.46875 C 9.816406 0.46875 8.171875 0.140625 6.578125 -0.515625 C 4.992188 -1.179688 3.585938 -2.285156 2.359375 -3.828125 Z M 2.359375 -3.828125 "/></g></g></g><g fill="#000000" fill-opacity="1"><g transform="translate(122.531952, 140.666516)"><g><path d="M 14.625 0.46875 C 12.195312 0.46875 10.054688 -0.046875 8.203125 -1.078125 C 6.347656 -2.117188 4.898438 -3.566406 3.859375 -5.421875 C 2.828125 -7.273438 2.3125 -9.445312 2.3125 -11.9375 C 2.3125 -14.601562 2.835938 -16.878906 3.890625 -18.765625 C 4.941406 -20.660156 6.304688 -22.117188 7.984375 -23.140625 C 9.671875 -24.160156 11.457031 -24.671875 13.34375 -24.671875 C 14.726562 -24.671875 16.070312 -24.425781 17.375 -23.9375 C 18.6875 -23.445312 19.851562 -22.722656 20.875 -21.765625 C 21.894531 -20.804688 22.710938 -19.632812 23.328125 -18.25 C 23.941406 -16.875 24.28125 -15.269531 24.34375 -13.4375 C 24.3125 -13.0625 24.148438 -12.738281 23.859375 -12.46875 C 23.578125 -12.207031 23.25 -12.078125 22.875 -12.078125 L 3.96875 -12.078125 L 3.390625 -14.625 L 21.984375 -14.625 L 21.375 -14.0625 L 21.375 -15 C 21.25 -16.476562 20.773438 -17.734375 19.953125 -18.765625 C 19.140625 -19.804688 18.148438 -20.59375 16.984375 -21.125 C 15.816406 -21.664062 14.601562 -21.9375 13.34375 -21.9375 C 12.40625 -21.9375 11.441406 -21.742188 10.453125 -21.359375 C 9.460938 -20.984375 8.566406 -20.394531 7.765625 -19.59375 C 6.960938 -18.789062 6.304688 -17.769531 5.796875 -16.53125 C 5.296875 -15.289062 5.046875 -13.820312 5.046875 -12.125 C 5.046875 -10.269531 5.421875 -8.585938 6.171875 -7.078125 C 6.929688 -5.566406 8.023438 -4.367188 9.453125 -3.484375 C 10.890625 -2.609375 12.597656 -2.171875 14.578125 -2.171875 C 15.679688 -2.171875 16.671875 -2.328125 17.546875 -2.640625 C 18.429688 -2.953125 19.203125 -3.367188 19.859375 -3.890625 C 20.515625 -4.410156 21.066406 -4.953125 21.515625 -5.515625 C 21.859375 -5.796875 22.203125 -5.9375 22.546875 -5.9375 C 22.859375 -5.9375 23.132812 -5.8125 23.375 -5.5625 C 23.613281 -5.3125 23.734375 -5.03125 23.734375 -4.71875 C 23.734375 -4.34375 23.570312 -4.015625 23.25 -3.734375 C 22.3125 -2.597656 21.085938 -1.613281 19.578125 -0.78125 C 18.066406 0.0507812 16.414062 0.46875 14.625 0.46875 Z M 14.625 0.46875 "/></g></g></g><g fill="#000000" fill-opacity="1"><g transform="translate(149.18059, 140.666516)"><g><path d="M 15.09375 -24.671875 C 17.164062 -24.671875 18.820312 -24.253906 20.0625 -23.421875 C 21.3125 -22.585938 22.207031 -21.453125 22.75 -20.015625 C 23.300781 -18.585938 23.578125 -17.007812 23.578125 -15.28125 L 23.578125 -1.421875 C 23.578125 -1.035156 23.4375 -0.703125 23.15625 -0.421875 C 22.875 -0.140625 22.546875 0 22.171875 0 C 21.734375 0 21.382812 -0.140625 21.125 -0.421875 C 20.875 -0.703125 20.75 -1.035156 20.75 -1.421875 L 20.75 -15.140625 C 20.75 -16.398438 20.546875 -17.546875 20.140625 -18.578125 C 19.734375 -19.617188 19.066406 -20.453125 18.140625 -21.078125 C 17.210938 -21.710938 15.992188 -22.03125 14.484375 -22.03125 C 13.128906 -22.03125 11.847656 -21.710938 10.640625 -21.078125 C 9.429688 -20.453125 8.445312 -19.617188 7.6875 -18.578125 C 6.9375 -17.546875 6.5625 -16.398438 6.5625 -15.140625 L 6.5625 -1.421875 C 6.5625 -1.035156 6.414062 -0.703125 6.125 -0.421875 C 5.84375 -0.140625 5.515625 0 5.140625 0 C 4.703125 0 4.359375 -0.140625 4.109375 -0.421875 C 3.859375 -0.703125 3.734375 -1.035156 3.734375 -1.421875 L 3.734375 -22.546875 C 3.734375 -22.921875 3.863281 -23.25 4.125 -23.53125 C 4.394531 -23.820312 4.734375 -23.96875 5.140625 -23.96875 C 5.546875 -23.96875 5.882812 -23.820312 6.15625 -23.53125 C 6.425781 -23.25 6.5625 -22.921875 6.5625 -22.546875 L 6.5625 -18.578125 L 5.46875 -16.890625 C 5.53125 -17.890625 5.851562 -18.851562 6.4375 -19.78125 C 7.019531 -20.71875 7.765625 -21.550781 8.671875 -22.28125 C 9.585938 -23.019531 10.601562 -23.601562 11.71875 -24.03125 C 12.832031 -24.457031 13.957031 -24.671875 15.09375 -24.671875 Z M 15.09375 -24.671875 "/></g></g></g><g fill="#000000" fill-opacity="1"><g transform="translate(176.442383, 140.666516)"><g><path d="M 2.359375 -3.828125 C 2.109375 -4.203125 1.988281 -4.566406 2 -4.921875 C 2.019531 -5.285156 2.21875 -5.578125 2.59375 -5.796875 C 2.84375 -6.015625 3.132812 -6.109375 3.46875 -6.078125 C 3.800781 -6.046875 4.109375 -5.890625 4.390625 -5.609375 C 5.234375 -4.515625 6.257812 -3.628906 7.46875 -2.953125 C 8.6875 -2.273438 10.128906 -1.9375 11.796875 -1.9375 C 12.671875 -1.9375 13.539062 -2.082031 14.40625 -2.375 C 15.269531 -2.675781 15.984375 -3.132812 16.546875 -3.75 C 17.117188 -4.363281 17.40625 -5.140625 17.40625 -6.078125 C 17.40625 -7.054688 17.117188 -7.84375 16.546875 -8.4375 C 15.984375 -9.039062 15.253906 -9.515625 14.359375 -9.859375 C 13.460938 -10.203125 12.515625 -10.5 11.515625 -10.75 C 10.441406 -11.039062 9.398438 -11.363281 8.390625 -11.71875 C 7.390625 -12.082031 6.503906 -12.539062 5.734375 -13.09375 C 4.960938 -13.644531 4.335938 -14.3125 3.859375 -15.09375 C 3.390625 -15.882812 3.15625 -16.84375 3.15625 -17.96875 C 3.15625 -19.289062 3.515625 -20.453125 4.234375 -21.453125 C 4.960938 -22.460938 5.945312 -23.25 7.1875 -23.8125 C 8.4375 -24.382812 9.847656 -24.671875 11.421875 -24.671875 C 12.203125 -24.671875 13.046875 -24.566406 13.953125 -24.359375 C 14.867188 -24.160156 15.765625 -23.820312 16.640625 -23.34375 C 17.523438 -22.875 18.316406 -22.234375 19.015625 -21.421875 C 19.296875 -21.128906 19.4375 -20.800781 19.4375 -20.4375 C 19.4375 -20.082031 19.28125 -19.765625 18.96875 -19.484375 C 18.707031 -19.296875 18.410156 -19.203125 18.078125 -19.203125 C 17.753906 -19.203125 17.484375 -19.328125 17.265625 -19.578125 C 16.503906 -20.421875 15.601562 -21.0625 14.5625 -21.5 C 13.53125 -21.945312 12.421875 -22.171875 11.234375 -22.171875 C 10.316406 -22.171875 9.457031 -22.019531 8.65625 -21.71875 C 7.851562 -21.425781 7.179688 -20.976562 6.640625 -20.375 C 6.109375 -19.78125 5.84375 -18.992188 5.84375 -18.015625 C 5.90625 -17.109375 6.226562 -16.367188 6.8125 -15.796875 C 7.394531 -15.234375 8.164062 -14.765625 9.125 -14.390625 C 10.082031 -14.015625 11.160156 -13.664062 12.359375 -13.34375 C 13.367188 -13.09375 14.335938 -12.796875 15.265625 -12.453125 C 16.191406 -12.109375 17.007812 -11.675781 17.71875 -11.15625 C 18.425781 -10.632812 18.988281 -9.976562 19.40625 -9.1875 C 19.832031 -8.40625 20.046875 -7.421875 20.046875 -6.234375 C 20.046875 -4.847656 19.660156 -3.648438 18.890625 -2.640625 C 18.117188 -1.628906 17.085938 -0.859375 15.796875 -0.328125 C 14.515625 0.203125 13.085938 0.46875 11.515625 0.46875 C 9.816406 0.46875 8.171875 0.140625 6.578125 -0.515625 C 4.992188 -1.179688 3.585938 -2.285156 2.359375 -3.828125 Z M 2.359375 -3.828125 "/></g></g></g><g fill="#000000" fill-opacity="1"><g transform="translate(198.563096, 140.666516)"><g><path d="M 14.625 0.46875 C 12.195312 0.46875 10.054688 -0.046875 8.203125 -1.078125 C 6.347656 -2.117188 4.898438 -3.566406 3.859375 -5.421875 C 2.828125 -7.273438 2.3125 -9.445312 2.3125 -11.9375 C 2.3125 -14.601562 2.835938 -16.878906 3.890625 -18.765625 C 4.941406 -20.660156 6.304688 -22.117188 7.984375 -23.140625 C 9.671875 -24.160156 11.457031 -24.671875 13.34375 -24.671875 C 14.726562 -24.671875 16.070312 -24.425781 17.375 -23.9375 C 18.6875 -23.445312 19.851562 -22.722656 20.875 -21.765625 C 21.894531 -20.804688 22.710938 -19.632812 23.328125 -18.25 C 23.941406 -16.875 24.28125 -15.269531 24.34375 -13.4375 C 24.3125 -13.0625 24.148438 -12.738281 23.859375 -12.46875 C 23.578125 -12.207031 23.25 -12.078125 22.875 -12.078125 L 3.96875 -12.078125 L 3.390625 -14.625 L 21.984375 -14.625 L 21.375 -14.0625 L 21.375 -15 C 21.25 -16.476562 20.773438 -17.734375 19.953125 -18.765625 C 19.140625 -19.804688 18.148438 -20.59375 16.984375 -21.125 C 15.816406 -21.664062 14.601562 -21.9375 13.34375 -21.9375 C 12.40625 -21.9375 11.441406 -21.742188 10.453125 -21.359375 C 9.460938 -20.984375 8.566406 -20.394531 7.765625 -19.59375 C 6.960938 -18.789062 6.304688 -17.769531 5.796875 -16.53125 C 5.296875 -15.289062 5.046875 -13.820312 5.046875 -12.125 C 5.046875 -10.269531 5.421875 -8.585938 6.171875 -7.078125 C 6.929688 -5.566406 8.023438 -4.367188 9.453125 -3.484375 C 10.890625 -2.609375 12.597656 -2.171875 14.578125 -2.171875 C 15.679688 -2.171875 16.671875 -2.328125 17.546875 -2.640625 C 18.429688 -2.953125 19.203125 -3.367188 19.859375 -3.890625 C 20.515625 -4.410156 21.066406 -4.953125 21.515625 -5.515625 C 21.859375 -5.796875 22.203125 -5.9375 22.546875 -5.9375 C 22.859375 -5.9375 23.132812 -5.8125 23.375 -5.5625 C 23.613281 -5.3125 23.734375 -5.03125 23.734375 -4.71875 C 23.734375 -4.34375 23.570312 -4.015625 23.25 -3.734375 C 22.3125 -2.597656 21.085938 -1.613281 19.578125 -0.78125 C 18.066406 0.0507812 16.414062 0.46875 14.625 0.46875 Z M 14.625 0.46875 "/></g></g></g><g fill="#000000" fill-opacity="1"><g transform="translate(235.196357, 144.476621)"><g><path d="M 12.453125 -34.71875 C 12.921875 -34.71875 13.429688 -34.671875 13.984375 -34.578125 C 14.535156 -34.484375 15.015625 -34.316406 15.421875 -34.078125 C 15.828125 -33.847656 16.03125 -33.492188 16.03125 -33.015625 C 16.03125 -32.671875 15.90625 -32.363281 15.65625 -32.09375 C 15.40625 -31.832031 15.125 -31.703125 14.8125 -31.703125 C 14.5 -31.703125 14.101562 -31.785156 13.625 -31.953125 C 13.15625 -32.128906 12.65625 -32.21875 12.125 -32.21875 C 11.457031 -32.21875 10.890625 -32.066406 10.421875 -31.765625 C 9.953125 -31.472656 9.59375 -31.050781 9.34375 -30.5 C 9.09375 -29.945312 8.96875 -29.273438 8.96875 -28.484375 L 8.96875 -1.421875 C 8.96875 -1.035156 8.832031 -0.703125 8.5625 -0.421875 C 8.289062 -0.140625 7.953125 0 7.546875 0 C 7.140625 0 6.800781 -0.140625 6.53125 -0.421875 C 6.257812 -0.703125 6.125 -1.035156 6.125 -1.421875 L 6.125 -28.484375 C 6.125 -30.503906 6.710938 -32.046875 7.890625 -33.109375 C 9.078125 -34.179688 10.597656 -34.71875 12.453125 -34.71875 Z M 14.25 -23.640625 C 14.625 -23.640625 14.9375 -23.507812 15.1875 -23.25 C 15.4375 -23 15.5625 -22.6875 15.5625 -22.3125 C 15.5625 -21.9375 15.4375 -21.617188 15.1875 -21.359375 C 14.9375 -21.109375 14.625 -20.984375 14.25 -20.984375 L 2.6875 -20.984375 C 2.34375 -20.984375 2.035156 -21.117188 1.765625 -21.390625 C 1.503906 -21.660156 1.375 -21.96875 1.375 -22.3125 C 1.375 -22.71875 1.503906 -23.039062 1.765625 -23.28125 C 2.035156 -23.519531 2.34375 -23.640625 2.6875 -23.640625 Z M 14.25 -23.640625 "/></g></g></g><g fill="#000000" fill-opacity="1"><g transform="translate(252.176801, 144.476621)"><g><path d="M 3.0625 -24.34375 C 3.539062 -24.34375 3.921875 -24.140625 4.203125 -23.734375 L 20.890625 -2.125 C 21.117188 -1.875 21.234375 -1.59375 21.234375 -1.28125 C 21.234375 -0.894531 21.085938 -0.5625 20.796875 -0.28125 C 20.515625 0 20.1875 0.140625 19.8125 0.140625 C 19.375 0.140625 18.984375 -0.0625 18.640625 -0.46875 L 1.890625 -22.078125 C 1.703125 -22.296875 1.609375 -22.578125 1.609375 -22.921875 C 1.609375 -23.328125 1.753906 -23.664062 2.046875 -23.9375 C 2.347656 -24.207031 2.6875 -24.34375 3.0625 -24.34375 Z M 3.0625 0.140625 C 2.75 0.140625 2.441406 0.03125 2.140625 -0.1875 C 1.847656 -0.40625 1.703125 -0.71875 1.703125 -1.125 C 1.703125 -1.476562 1.8125 -1.78125 2.03125 -2.03125 L 10 -12.265625 L 11.5625 -10 L 4.203125 -0.421875 C 3.921875 -0.046875 3.539062 0.140625 3.0625 0.140625 Z M 19.8125 -24.34375 C 20.21875 -24.34375 20.539062 -24.222656 20.78125 -23.984375 C 21.019531 -23.753906 21.140625 -23.460938 21.140625 -23.109375 C 21.140625 -22.953125 21.113281 -22.796875 21.0625 -22.640625 C 21.007812 -22.484375 20.921875 -22.34375 20.796875 -22.21875 L 12.828125 -11.75 L 11.375 -14.015625 L 18.640625 -23.734375 C 18.984375 -24.140625 19.375 -24.34375 19.8125 -24.34375 Z M 19.8125 -24.34375 "/></g></g></g></svg>