<svg xmlns="http://www.w3.org/2000/svg" xmlns:xlink="http://www.w3.org/1999/xlink" width="500" zoomAndPan="magnify" viewBox="0 0 375 374.999991" height="500" preserveAspectRatio="xMidYMid meet" version="1.0"><defs><g/><clipPath id="44ef986b53"><path d="M 90.890625 175.523438 L 283.179688 175.523438 L 283.179688 232.519531 L 90.890625 232.519531 Z M 90.890625 175.523438 " clip-rule="nonzero"/></clipPath><clipPath id="04acc3aaff"><path d="M 220.527344 178.707031 L 273.449219 178.707031 L 273.449219 228.5 L 220.527344 228.5 Z M 220.527344 178.707031 " clip-rule="nonzero"/></clipPath><clipPath id="9f2f37d723"><path d="M 220.527344 178.707031 L 273.4375 178.707031 L 273.4375 228.207031 L 220.527344 228.207031 Z M 220.527344 178.707031 " clip-rule="nonzero"/></clipPath></defs><g clip-path="url(#44ef986b53)"><path fill="#000000" d="M 90.890625 175.523438 L 283.253906 175.523438 L 283.253906 232.519531 L 90.890625 232.519531 Z M 90.890625 175.523438 " fill-opacity="1" fill-rule="nonzero"/></g><g fill="#ffffff" fill-opacity="1"><g transform="translate(97.097404, 215.93261)"><g><path d="M 2.28125 -3.703125 C 2.039062 -4.066406 1.925781 -4.421875 1.9375 -4.765625 C 1.957031 -5.117188 2.148438 -5.40625 2.515625 -5.625 C 2.753906 -5.832031 3.035156 -5.921875 3.359375 -5.890625 C 3.679688 -5.859375 3.976562 -5.707031 4.25 -5.4375 C 5.070312 -4.375 6.066406 -3.515625 7.234375 -2.859375 C 8.410156 -2.203125 9.804688 -1.875 11.421875 -1.875 C 12.273438 -1.875 13.117188 -2.015625 13.953125 -2.296875 C 14.796875 -2.585938 15.488281 -3.03125 16.03125 -3.625 C 16.582031 -4.21875 16.859375 -4.972656 16.859375 -5.890625 C 16.859375 -6.835938 16.582031 -7.597656 16.03125 -8.171875 C 15.488281 -8.753906 14.78125 -9.210938 13.90625 -9.546875 C 13.039062 -9.878906 12.117188 -10.171875 11.140625 -10.421875 C 10.109375 -10.691406 9.101562 -11 8.125 -11.34375 C 7.15625 -11.695312 6.296875 -12.140625 5.546875 -12.671875 C 4.804688 -13.210938 4.207031 -13.863281 3.75 -14.625 C 3.289062 -15.382812 3.0625 -16.3125 3.0625 -17.40625 C 3.0625 -18.6875 3.410156 -19.8125 4.109375 -20.78125 C 4.804688 -21.757812 5.753906 -22.519531 6.953125 -23.0625 C 8.160156 -23.613281 9.53125 -23.890625 11.0625 -23.890625 C 11.820312 -23.890625 12.640625 -23.789062 13.515625 -23.59375 C 14.398438 -23.394531 15.269531 -23.066406 16.125 -22.609375 C 16.976562 -22.160156 17.738281 -21.535156 18.40625 -20.734375 C 18.6875 -20.460938 18.828125 -20.148438 18.828125 -19.796875 C 18.828125 -19.453125 18.671875 -19.144531 18.359375 -18.875 C 18.117188 -18.6875 17.835938 -18.59375 17.515625 -18.59375 C 17.203125 -18.59375 16.9375 -18.710938 16.71875 -18.953125 C 15.988281 -19.773438 15.117188 -20.398438 14.109375 -20.828125 C 13.109375 -21.253906 12.03125 -21.46875 10.875 -21.46875 C 9.988281 -21.46875 9.15625 -21.320312 8.375 -21.03125 C 7.601562 -20.75 6.957031 -20.316406 6.4375 -19.734375 C 5.925781 -19.160156 5.671875 -18.398438 5.671875 -17.453125 C 5.722656 -16.566406 6.03125 -15.847656 6.59375 -15.296875 C 7.164062 -14.753906 7.914062 -14.300781 8.84375 -13.9375 C 9.769531 -13.570312 10.8125 -13.234375 11.96875 -12.921875 C 12.945312 -12.679688 13.882812 -12.394531 14.78125 -12.0625 C 15.675781 -11.726562 16.46875 -11.304688 17.15625 -10.796875 C 17.84375 -10.296875 18.390625 -9.664062 18.796875 -8.90625 C 19.210938 -8.144531 19.421875 -7.1875 19.421875 -6.03125 C 19.421875 -4.6875 19.046875 -3.523438 18.296875 -2.546875 C 17.546875 -1.578125 16.546875 -0.832031 15.296875 -0.3125 C 14.054688 0.195312 12.671875 0.453125 11.140625 0.453125 C 9.503906 0.453125 7.914062 0.132812 6.375 -0.5 C 4.832031 -1.144531 3.46875 -2.210938 2.28125 -3.703125 Z M 2.28125 -3.703125 "/></g></g></g><g fill="#ffffff" fill-opacity="1"><g transform="translate(118.522257, 215.93261)"><g><path d="M 14.15625 0.453125 C 11.8125 0.453125 9.738281 -0.046875 7.9375 -1.046875 C 6.144531 -2.054688 4.742188 -3.457031 3.734375 -5.25 C 2.734375 -7.050781 2.234375 -9.15625 2.234375 -11.5625 C 2.234375 -14.144531 2.742188 -16.347656 3.765625 -18.171875 C 4.785156 -20.003906 6.109375 -21.414062 7.734375 -22.40625 C 9.367188 -23.394531 11.097656 -23.890625 12.921875 -23.890625 C 14.265625 -23.890625 15.566406 -23.65625 16.828125 -23.1875 C 18.097656 -22.71875 19.226562 -22.015625 20.21875 -21.078125 C 21.207031 -20.148438 22 -19.015625 22.59375 -17.671875 C 23.1875 -16.335938 23.515625 -14.785156 23.578125 -13.015625 C 23.546875 -12.648438 23.390625 -12.335938 23.109375 -12.078125 C 22.835938 -11.828125 22.519531 -11.703125 22.15625 -11.703125 L 3.84375 -11.703125 L 3.296875 -14.15625 L 21.296875 -14.15625 L 20.703125 -13.609375 L 20.703125 -14.53125 C 20.578125 -15.957031 20.117188 -17.171875 19.328125 -18.171875 C 18.535156 -19.179688 17.570312 -19.945312 16.4375 -20.46875 C 15.3125 -20.988281 14.140625 -21.25 12.921875 -21.25 C 12.015625 -21.25 11.082031 -21.0625 10.125 -20.6875 C 9.164062 -20.320312 8.296875 -19.75 7.515625 -18.96875 C 6.734375 -18.195312 6.097656 -17.207031 5.609375 -16 C 5.128906 -14.800781 4.890625 -13.378906 4.890625 -11.734375 C 4.890625 -9.941406 5.253906 -8.3125 5.984375 -6.84375 C 6.710938 -5.382812 7.769531 -4.226562 9.15625 -3.375 C 10.539062 -2.53125 12.195312 -2.109375 14.125 -2.109375 C 15.1875 -2.109375 16.144531 -2.257812 17 -2.5625 C 17.851562 -2.863281 18.597656 -3.265625 19.234375 -3.765625 C 19.867188 -4.265625 20.398438 -4.789062 20.828125 -5.34375 C 21.171875 -5.613281 21.507812 -5.75 21.84375 -5.75 C 22.144531 -5.75 22.410156 -5.628906 22.640625 -5.390625 C 22.867188 -5.148438 22.984375 -4.875 22.984375 -4.5625 C 22.984375 -4.195312 22.832031 -3.878906 22.53125 -3.609375 C 21.613281 -2.515625 20.421875 -1.5625 18.953125 -0.75 C 17.492188 0.0507812 15.894531 0.453125 14.15625 0.453125 Z M 14.15625 0.453125 "/></g></g></g><g fill="#ffffff" fill-opacity="1"><g transform="translate(144.332598, 215.93261)"><g><path d="M 14.625 -23.890625 C 16.632812 -23.890625 18.238281 -23.484375 19.4375 -22.671875 C 20.644531 -21.867188 21.515625 -20.773438 22.046875 -19.390625 C 22.578125 -18.003906 22.84375 -16.472656 22.84375 -14.796875 L 22.84375 -1.375 C 22.84375 -1.007812 22.703125 -0.6875 22.421875 -0.40625 C 22.148438 -0.132812 21.832031 0 21.46875 0 C 21.039062 0 20.707031 -0.132812 20.46875 -0.40625 C 20.226562 -0.6875 20.109375 -1.007812 20.109375 -1.375 L 20.109375 -14.671875 C 20.109375 -15.890625 19.910156 -17 19.515625 -18 C 19.117188 -19.007812 18.46875 -19.816406 17.5625 -20.421875 C 16.664062 -21.035156 15.488281 -21.34375 14.03125 -21.34375 C 12.71875 -21.34375 11.472656 -21.035156 10.296875 -20.421875 C 9.128906 -19.816406 8.175781 -19.007812 7.4375 -18 C 6.707031 -17 6.34375 -15.890625 6.34375 -14.671875 L 6.34375 -1.375 C 6.34375 -1.007812 6.207031 -0.6875 5.9375 -0.40625 C 5.664062 -0.132812 5.347656 0 4.984375 0 C 4.554688 0 4.21875 -0.132812 3.96875 -0.40625 C 3.726562 -0.6875 3.609375 -1.007812 3.609375 -1.375 L 3.609375 -21.84375 C 3.609375 -22.207031 3.738281 -22.523438 4 -22.796875 C 4.257812 -23.066406 4.585938 -23.203125 4.984375 -23.203125 C 5.378906 -23.203125 5.703125 -23.066406 5.953125 -22.796875 C 6.210938 -22.523438 6.34375 -22.207031 6.34375 -21.84375 L 6.34375 -18 L 5.296875 -16.359375 C 5.359375 -17.328125 5.671875 -18.257812 6.234375 -19.15625 C 6.796875 -20.0625 7.519531 -20.867188 8.40625 -21.578125 C 9.289062 -22.296875 10.269531 -22.859375 11.34375 -23.265625 C 12.425781 -23.679688 13.519531 -23.890625 14.625 -23.890625 Z M 14.625 -23.890625 "/></g></g></g><g fill="#ffffff" fill-opacity="1"><g transform="translate(170.736806, 215.93261)"><g><path d="M 2.28125 -3.703125 C 2.039062 -4.066406 1.925781 -4.421875 1.9375 -4.765625 C 1.957031 -5.117188 2.148438 -5.40625 2.515625 -5.625 C 2.753906 -5.832031 3.035156 -5.921875 3.359375 -5.890625 C 3.679688 -5.859375 3.976562 -5.707031 4.25 -5.4375 C 5.070312 -4.375 6.066406 -3.515625 7.234375 -2.859375 C 8.410156 -2.203125 9.804688 -1.875 11.421875 -1.875 C 12.273438 -1.875 13.117188 -2.015625 13.953125 -2.296875 C 14.796875 -2.585938 15.488281 -3.03125 16.03125 -3.625 C 16.582031 -4.21875 16.859375 -4.972656 16.859375 -5.890625 C 16.859375 -6.835938 16.582031 -7.597656 16.03125 -8.171875 C 15.488281 -8.753906 14.78125 -9.210938 13.90625 -9.546875 C 13.039062 -9.878906 12.117188 -10.171875 11.140625 -10.421875 C 10.109375 -10.691406 9.101562 -11 8.125 -11.34375 C 7.15625 -11.695312 6.296875 -12.140625 5.546875 -12.671875 C 4.804688 -13.210938 4.207031 -13.863281 3.75 -14.625 C 3.289062 -15.382812 3.0625 -16.3125 3.0625 -17.40625 C 3.0625 -18.6875 3.410156 -19.8125 4.109375 -20.78125 C 4.804688 -21.757812 5.753906 -22.519531 6.953125 -23.0625 C 8.160156 -23.613281 9.53125 -23.890625 11.0625 -23.890625 C 11.820312 -23.890625 12.640625 -23.789062 13.515625 -23.59375 C 14.398438 -23.394531 15.269531 -23.066406 16.125 -22.609375 C 16.976562 -22.160156 17.738281 -21.535156 18.40625 -20.734375 C 18.6875 -20.460938 18.828125 -20.148438 18.828125 -19.796875 C 18.828125 -19.453125 18.671875 -19.144531 18.359375 -18.875 C 18.117188 -18.6875 17.835938 -18.59375 17.515625 -18.59375 C 17.203125 -18.59375 16.9375 -18.710938 16.71875 -18.953125 C 15.988281 -19.773438 15.117188 -20.398438 14.109375 -20.828125 C 13.109375 -21.253906 12.03125 -21.46875 10.875 -21.46875 C 9.988281 -21.46875 9.15625 -21.320312 8.375 -21.03125 C 7.601562 -20.75 6.957031 -20.316406 6.4375 -19.734375 C 5.925781 -19.160156 5.671875 -18.398438 5.671875 -17.453125 C 5.722656 -16.566406 6.03125 -15.847656 6.59375 -15.296875 C 7.164062 -14.753906 7.914062 -14.300781 8.84375 -13.9375 C 9.769531 -13.570312 10.8125 -13.234375 11.96875 -12.921875 C 12.945312 -12.679688 13.882812 -12.394531 14.78125 -12.0625 C 15.675781 -11.726562 16.46875 -11.304688 17.15625 -10.796875 C 17.84375 -10.296875 18.390625 -9.664062 18.796875 -8.90625 C 19.210938 -8.144531 19.421875 -7.1875 19.421875 -6.03125 C 19.421875 -4.6875 19.046875 -3.523438 18.296875 -2.546875 C 17.546875 -1.578125 16.546875 -0.832031 15.296875 -0.3125 C 14.054688 0.195312 12.671875 0.453125 11.140625 0.453125 C 9.503906 0.453125 7.914062 0.132812 6.375 -0.5 C 4.832031 -1.144531 3.46875 -2.210938 2.28125 -3.703125 Z M 2.28125 -3.703125 "/></g></g></g><g fill="#ffffff" fill-opacity="1"><g transform="translate(192.161659, 215.93261)"><g><path d="M 14.15625 0.453125 C 11.8125 0.453125 9.738281 -0.046875 7.9375 -1.046875 C 6.144531 -2.054688 4.742188 -3.457031 3.734375 -5.25 C 2.734375 -7.050781 2.234375 -9.15625 2.234375 -11.5625 C 2.234375 -14.144531 2.742188 -16.347656 3.765625 -18.171875 C 4.785156 -20.003906 6.109375 -21.414062 7.734375 -22.40625 C 9.367188 -23.394531 11.097656 -23.890625 12.921875 -23.890625 C 14.265625 -23.890625 15.566406 -23.65625 16.828125 -23.1875 C 18.097656 -22.71875 19.226562 -22.015625 20.21875 -21.078125 C 21.207031 -20.148438 22 -19.015625 22.59375 -17.671875 C 23.1875 -16.335938 23.515625 -14.785156 23.578125 -13.015625 C 23.546875 -12.648438 23.390625 -12.335938 23.109375 -12.078125 C 22.835938 -11.828125 22.519531 -11.703125 22.15625 -11.703125 L 3.84375 -11.703125 L 3.296875 -14.15625 L 21.296875 -14.15625 L 20.703125 -13.609375 L 20.703125 -14.53125 C 20.578125 -15.957031 20.117188 -17.171875 19.328125 -18.171875 C 18.535156 -19.179688 17.570312 -19.945312 16.4375 -20.46875 C 15.3125 -20.988281 14.140625 -21.25 12.921875 -21.25 C 12.015625 -21.25 11.082031 -21.0625 10.125 -20.6875 C 9.164062 -20.320312 8.296875 -19.75 7.515625 -18.96875 C 6.734375 -18.195312 6.097656 -17.207031 5.609375 -16 C 5.128906 -14.800781 4.890625 -13.378906 4.890625 -11.734375 C 4.890625 -9.941406 5.253906 -8.3125 5.984375 -6.84375 C 6.710938 -5.382812 7.769531 -4.226562 9.15625 -3.375 C 10.539062 -2.53125 12.195312 -2.109375 14.125 -2.109375 C 15.1875 -2.109375 16.144531 -2.257812 17 -2.5625 C 17.851562 -2.863281 18.597656 -3.265625 19.234375 -3.765625 C 19.867188 -4.265625 20.398438 -4.789062 20.828125 -5.34375 C 21.171875 -5.613281 21.507812 -5.75 21.84375 -5.75 C 22.144531 -5.75 22.410156 -5.628906 22.640625 -5.390625 C 22.867188 -5.148438 22.984375 -4.875 22.984375 -4.5625 C 22.984375 -4.195312 22.832031 -3.878906 22.53125 -3.609375 C 21.613281 -2.515625 20.421875 -1.5625 18.953125 -0.75 C 17.492188 0.0507812 15.894531 0.453125 14.15625 0.453125 Z M 14.15625 0.453125 "/></g></g></g><g clip-path="url(#04acc3aaff)"><path fill="#000000" d="M 220.527344 178.707031 L 273.429688 178.707031 L 273.429688 228.5 L 220.527344 228.5 Z M 220.527344 178.707031 " fill-opacity="1" fill-rule="nonzero"/></g><g clip-path="url(#9f2f37d723)"><path stroke-linecap="butt" transform="matrix(0.75, 0, 0, 0.75, 220.528348, 178.707497)" fill="none" stroke-linejoin="miter" d="M -0.00133956 -0.000621087 L 70.54554 -0.000621087 L 70.54554 66.374383 L -0.00133956 66.374383 Z M -0.00133956 -0.000621087 " stroke="#ffffff" stroke-width="2" stroke-opacity="1" stroke-miterlimit="4"/></g><g fill="#ffffff" fill-opacity="1"><g transform="translate(226.99604, 215.93261)"><g><path d="M 12.0625 -33.625 C 12.519531 -33.625 13.015625 -33.578125 13.546875 -33.484375 C 14.078125 -33.398438 14.539062 -33.242188 14.9375 -33.015625 C 15.332031 -32.785156 15.53125 -32.441406 15.53125 -31.984375 C 15.53125 -31.648438 15.40625 -31.351562 15.15625 -31.09375 C 14.914062 -30.832031 14.644531 -30.703125 14.34375 -30.703125 C 14.039062 -30.703125 13.660156 -30.785156 13.203125 -30.953125 C 12.742188 -31.117188 12.253906 -31.203125 11.734375 -31.203125 C 11.097656 -31.203125 10.550781 -31.054688 10.09375 -30.765625 C 9.632812 -30.484375 9.285156 -30.070312 9.046875 -29.53125 C 8.804688 -29 8.6875 -28.351562 8.6875 -27.59375 L 8.6875 -1.375 C 8.6875 -1.007812 8.554688 -0.6875 8.296875 -0.40625 C 8.035156 -0.132812 7.707031 0 7.3125 0 C 6.914062 0 6.585938 -0.132812 6.328125 -0.40625 C 6.066406 -0.6875 5.9375 -1.007812 5.9375 -1.375 L 5.9375 -27.59375 C 5.9375 -29.539062 6.503906 -31.03125 7.640625 -32.0625 C 8.785156 -33.101562 10.257812 -33.625 12.0625 -33.625 Z M 13.796875 -22.890625 C 14.160156 -22.890625 14.460938 -22.765625 14.703125 -22.515625 C 14.953125 -22.273438 15.078125 -21.972656 15.078125 -21.609375 C 15.078125 -21.242188 14.953125 -20.9375 14.703125 -20.6875 C 14.460938 -20.445312 14.160156 -20.328125 13.796875 -20.328125 L 2.609375 -20.328125 C 2.273438 -20.328125 1.976562 -20.457031 1.71875 -20.71875 C 1.457031 -20.976562 1.328125 -21.273438 1.328125 -21.609375 C 1.328125 -22.003906 1.457031 -22.316406 1.71875 -22.546875 C 1.976562 -22.773438 2.273438 -22.890625 2.609375 -22.890625 Z M 13.796875 -22.890625 "/></g></g></g><g fill="#ffffff" fill-opacity="1"><g transform="translate(243.44157, 215.93261)"><g><path d="M 2.96875 -23.578125 C 3.425781 -23.578125 3.789062 -23.378906 4.0625 -22.984375 L 20.234375 -2.0625 C 20.453125 -1.8125 20.5625 -1.535156 20.5625 -1.234375 C 20.5625 -0.867188 20.421875 -0.546875 20.140625 -0.265625 C 19.867188 0.00390625 19.550781 0.140625 19.1875 0.140625 C 18.757812 0.140625 18.378906 -0.0546875 18.046875 -0.453125 L 1.828125 -21.375 C 1.640625 -21.59375 1.546875 -21.867188 1.546875 -22.203125 C 1.546875 -22.597656 1.691406 -22.925781 1.984375 -23.1875 C 2.273438 -23.445312 2.601562 -23.578125 2.96875 -23.578125 Z M 2.96875 0.140625 C 2.664062 0.140625 2.367188 0.0351562 2.078125 -0.171875 C 1.785156 -0.390625 1.640625 -0.695312 1.640625 -1.09375 C 1.640625 -1.425781 1.75 -1.71875 1.96875 -1.96875 L 9.6875 -11.875 L 11.1875 -9.6875 L 4.0625 -0.40625 C 3.789062 -0.0390625 3.425781 0.140625 2.96875 0.140625 Z M 19.1875 -23.578125 C 19.582031 -23.578125 19.894531 -23.460938 20.125 -23.234375 C 20.351562 -23.003906 20.46875 -22.722656 20.46875 -22.390625 C 20.46875 -22.234375 20.441406 -22.078125 20.390625 -21.921875 C 20.347656 -21.773438 20.265625 -21.640625 20.140625 -21.515625 L 12.421875 -11.375 L 11.015625 -13.5625 L 18.046875 -22.984375 C 18.378906 -23.378906 18.757812 -23.578125 19.1875 -23.578125 Z M 19.1875 -23.578125 "/></g></g></g></svg>