<svg class="svg-icon" style="width: 1em;height: 1em;vertical-align: middle;fill: currentColor;overflow: hidden;" viewBox="0 0 1024 1024" version="1.1" xmlns="http://www.w3.org/2000/svg"><path d="M875.52 128c11.1104 0 20.48 9.3696 20.48 20.48v727.04c0 11.1104-9.3696 20.48-20.48 20.48H148.48c-11.1104 0-20.48-9.3696-20.48-20.48V148.48c0-11.1104 9.3696-20.48 20.48-20.48h727.04m0-40.96H148.48c-33.792 0-61.44 27.648-61.44 61.44v727.04c0 33.792 27.648 61.44 61.44 61.44h727.04c33.792 0 61.44-27.648 61.44-61.44V148.48c0-33.792-27.648-61.44-61.44-61.44z" fill="#666666" /><path d="M356.096 368.2304c-0.256 0-0.512 0-0.768 0.0512l-12.4416 1.3312c-0.256 0.0512-0.512 0.0512-0.768 0.0512H177.92c-3.9424 0-7.168 3.2256-7.168 7.168v256.4096c0 3.9424 3.2256 7.168 7.168 7.168h186.6752c3.9424 0 7.168-3.2256 7.168-7.168v-19.9168c0-3.9936-3.2768-7.168-7.168-7.168-0.3072 0-0.6144 0-0.9216 0.0512l-17.8176 2.2528c-0.3072 0.0512-0.6144 0.0512-0.9216 0.0512h-135.168c-3.9424 0-7.168-3.2256-7.168-7.168v-75.776c0-3.9424 3.2256-7.168 7.168-7.168H349.696c3.9424 0 7.168-3.2256 7.168-7.168v-19.456c0-3.9936-3.2768-7.168-7.168-7.168-0.3584 0-0.6656 0-1.024 0.0512l-12.4928 1.7408c-0.3072 0.0512-0.6656 0.0512-0.9728 0.0512H209.8176c-3.9424 0-7.168-3.2256-7.168-7.168V408.7296c0-3.9424 3.2256-7.168 7.168-7.168h146.2784c3.9424 0 7.168-3.2256 7.168-7.168v-18.944c0-4.0448-3.2768-7.2192-7.168-7.2192zM506.0608 367.4624h-93.696c-6.0416 0-10.9056 4.864-10.9056 10.9056v253.0816c0 6.0416 4.864 10.9056 10.9056 10.9056h10.0864c6.0416 0 10.9056-4.864 10.9056-10.9056V537.088c0-6.0416 4.864-10.9056 10.9056-10.9056h48.2304c3.4304 0 6.656 1.5872 8.704 4.352l85.1968 112.7936c2.1504 2.816 5.4272 4.352 8.704 4.352 2.2528 0 4.5056-0.7168 6.4512-2.1504l8.0384-5.9392c4.864-3.584 5.888-10.496 2.2016-15.36l-66.2528-87.6544a10.88 10.88 0 0 1 5.376-16.896c4.5056-1.4848 8.8576-3.1744 13.0048-5.1712 8.6528-4.096 16.128-9.2672 22.4256-15.5648s11.1616-13.824 14.6432-22.6304c3.4816-8.7552 5.1712-18.7392 5.1712-29.8496 0-14.848-2.7648-27.3408-8.3456-37.4784-5.5808-10.1376-13.0048-18.2784-22.272-24.4736-9.2672-6.1952-19.9168-10.5472-31.8976-13.1584-11.9296-2.6112-24.4736-3.8912-37.5808-3.8912zM444.2624 494.2848c-6.0416 0-10.9056-4.864-10.9056-10.9056V409.856c0-6.0416 4.864-10.9056 10.9056-10.9056h61.7984c8.1408 0 16.3328 0.6144 24.4736 1.8432 8.1408 1.2288 15.5136 3.584 22.0672 7.0656 6.5536 3.4816 11.8272 8.2944 15.7696 14.4896s5.9392 14.2336 5.9392 24.1152c0 9.6256-2.048 17.6128-6.144 23.9104a42.18368 42.18368 0 0 1-15.9744 14.6432c-6.5536 3.4816-13.8752 5.888-21.9136 7.2192-8.0384 1.3824-16.128 2.048-24.2688 2.048H444.2624zM752.7424 367.8208h-93.9008c-5.9392 0-10.7008 4.8128-10.7008 10.7008v253.8496c0 5.9392 4.8128 10.7008 10.7008 10.7008h10.8544c5.9392 0 10.7008-4.8128 10.7008-10.7008v-88.0128c0-5.9392 4.8128-10.7008 10.7008-10.7008h61.6448c12.8512 0 25.2928-1.4336 37.2736-4.2496 11.9808-2.816 22.6816-7.424 32.1024-13.7216 9.3696-6.2976 16.9472-14.592 22.6304-24.832 5.6832-10.24 8.5504-22.6816 8.5504-37.2736 0-15.5648-2.6112-28.7232-7.7824-39.5264-5.2224-10.752-12.288-19.6096-21.3504-26.5216-9.0112-6.912-19.6608-11.9296-31.8976-15.0016-12.2368-3.1744-25.4464-4.7104-39.5264-4.7104z m-61.6448 133.888a10.7008 10.7008 0 0 1-10.7008-10.7008V410.7776c0-5.9392 4.8128-10.7008 10.7008-10.7008h61.6448c15.104 0 27.136 1.5872 36.1472 4.8128 9.0112 3.2256 15.872 7.424 20.5824 12.5952 4.7104 5.1712 7.7824 10.9568 9.2672 17.2544 1.4848 6.2976 2.2016 12.544 2.2016 18.7392 0 9.6256-2.048 17.6128-6.144 23.9104-4.096 6.2976-9.3184 11.264-15.7696 14.848-6.4512 3.584-13.7216 6.0416-21.9136 7.424-8.1408 1.3824-16.3328 2.048-24.4736 2.048h-61.5424z" fill="#666666" /></svg>